<svg width="117" height="43" viewBox="0 0 117 43" fill="none" xmlns="http://www.w3.org/2000/svg">
<path d="M2.192 42.136L0.8 38.488C3.136 37.72 5.072 36.84 6.608 35.848C8.176 34.856 9.408 33.8 10.304 32.68C11.232 31.56 11.888 30.424 12.272 29.272C12.656 28.088 12.848 26.952 12.848 25.864C12.848 24.296 12.496 22.712 11.792 21.112C11.12 19.48 10.368 17.944 9.536 16.504L13.04 14.728C13.648 15.848 14.176 16.952 14.624 18.04C15.104 19.128 15.52 20.152 15.872 21.112C16.256 22.072 16.56 22.952 16.784 23.752C17.232 25.128 17.808 26.072 18.512 26.584C19.248 27.064 20.24 27.304 21.488 27.304C22.16 27.304 22.64 27.496 22.928 27.88C23.248 28.232 23.408 28.664 23.408 29.176C23.408 29.688 23.184 30.168 22.736 30.616C22.288 31.032 21.712 31.24 21.008 31.24C19.6 31.24 18.448 31 17.552 30.52C16.688 30.008 16.032 29.352 15.584 28.552C15.136 27.72 14.832 26.856 14.672 25.96L16.208 26.824C16.208 28.936 15.728 30.856 14.768 32.584C13.84 34.344 12.64 35.864 11.168 37.144C9.696 38.456 8.16 39.528 6.56 40.36C4.96 41.192 3.504 41.784 2.192 42.136ZM21.0312 31.24L21.5113 27.304C23.1113 27.304 24.3593 27.192 25.2553 26.968C26.1513 26.712 26.8233 26.248 27.2713 25.576C27.7513 24.872 28.1353 23.864 28.4233 22.552C28.7113 21.24 29.0633 19.528 29.4793 17.416L33.2233 18.136C33.0953 18.712 32.9513 19.352 32.7913 20.056C32.6313 20.76 32.4873 21.464 32.3593 22.168C32.2633 22.84 32.2153 23.432 32.2153 23.944C32.2153 24.424 32.2473 24.872 32.3113 25.288C32.3753 25.704 32.6153 26.056 33.0312 26.344C33.4473 26.632 34.1513 26.872 35.1432 27.064C36.1353 27.224 37.5593 27.304 39.4153 27.304C40.0873 27.304 40.5673 27.496 40.8553 27.88C41.1753 28.232 41.3353 28.664 41.3353 29.176C41.3353 29.688 41.1113 30.168 40.6633 30.616C40.2153 31.032 39.6393 31.24 38.9353 31.24C36.9833 31.24 35.4313 31.144 34.2793 30.952C33.1273 30.728 32.2473 30.408 31.6393 29.992C31.0633 29.576 30.6473 29.064 30.3913 28.456C30.1673 27.816 29.9913 27.08 29.8633 26.248L31.3033 26.344C30.7913 27.368 30.2313 28.2 29.6233 28.84C29.0473 29.48 28.3753 29.976 27.6073 30.328C26.8393 30.68 25.9113 30.92 24.8233 31.048C23.7673 31.176 22.5033 31.24 21.0312 31.24ZM33.1273 40.312C32.4553 40.312 31.8793 40.072 31.3993 39.592C30.9513 39.144 30.7273 38.6 30.7273 37.96C30.7273 37.32 30.9513 36.76 31.3993 36.28C31.8793 35.8 32.4553 35.56 33.1273 35.56C33.7673 35.56 34.3113 35.8 34.7593 36.28C35.2393 36.76 35.4793 37.32 35.4793 37.96C35.4793 38.6 35.2393 39.144 34.7593 39.592C34.3113 40.072 33.7673 40.312 33.1273 40.312ZM26.5513 40.312C25.8793 40.312 25.3033 40.072 24.8233 39.592C24.3753 39.144 24.1513 38.6 24.1513 37.96C24.1513 37.32 24.3753 36.76 24.8233 36.28C25.3033 35.8 25.8793 35.56 26.5513 35.56C27.1913 35.56 27.7353 35.8 28.1833 36.28C28.6633 36.76 28.9033 37.32 28.9033 37.96C28.9033 38.6 28.6633 39.144 28.1833 39.592C27.7353 40.072 27.1913 40.312 26.5513 40.312ZM38.9375 31.24L39.4175 27.304C40.2175 27.304 41.0335 27.304 41.8655 27.304C42.7295 27.272 43.5775 27.224 44.4095 27.16C45.2415 27.096 46.0415 27.016 46.8095 26.92C47.5775 26.824 48.2655 26.68 48.8735 26.488C49.9935 26.136 51.0175 25.672 51.9455 25.096C52.9055 24.52 53.6735 23.816 54.2495 22.984C54.8575 22.152 55.1615 21.192 55.1615 20.104C55.1615 19.368 54.9855 18.616 54.6335 17.848C54.2815 17.048 53.8015 16.376 53.1935 15.832C52.5855 15.288 51.8815 15.016 51.0815 15.016C50.3135 15.016 49.5935 15.272 48.9215 15.784C48.2815 16.296 47.7535 16.968 47.3375 17.8C46.9535 18.6 46.7615 19.432 46.7615 20.296C46.7615 21.32 47.0175 22.248 47.5295 23.08C48.0735 23.88 48.7295 24.568 49.4975 25.144C50.2655 25.72 51.0335 26.184 51.8015 26.536L47.2415 27.88C46.7295 27.496 46.1215 26.968 45.4175 26.296C44.7455 25.592 44.1375 24.728 43.5935 23.704C43.0815 22.68 42.8255 21.512 42.8255 20.2C42.8255 18.92 43.0495 17.736 43.4975 16.648C43.9775 15.528 44.6015 14.552 45.3695 13.72C46.1695 12.888 47.0655 12.248 48.0575 11.8C49.0815 11.32 50.1375 11.08 51.2255 11.08C52.7935 11.08 54.1695 11.512 55.3535 12.376C56.5375 13.24 57.4495 14.344 58.0895 15.688C58.7615 17 59.0975 18.376 59.0975 19.816C59.0975 21.192 58.8415 22.44 58.3295 23.56C57.8175 24.648 57.1135 25.624 56.2175 26.488C55.3535 27.352 54.3295 28.088 53.1455 28.696C51.9935 29.304 50.7615 29.8 49.4495 30.184C48.7135 30.408 47.9135 30.584 47.0495 30.712C46.2175 30.84 45.3375 30.936 44.4095 31C43.4815 31.096 42.5535 31.16 41.6255 31.192C40.6975 31.224 39.8015 31.24 38.9375 31.24ZM62.6975 31.24C61.0975 31.24 59.4335 31.144 57.7055 30.952C56.0095 30.728 54.3935 30.456 52.8575 30.136C51.3535 29.784 50.1055 29.4 49.1135 28.984L52.4255 26.584C53.3855 26.712 54.5215 26.84 55.8335 26.968C57.1455 27.064 58.4575 27.144 59.7695 27.208C61.0815 27.272 62.2175 27.304 63.1775 27.304C63.8495 27.304 64.3295 27.496 64.6175 27.88C64.9375 28.232 65.0975 28.664 65.0975 29.176C65.0975 29.688 64.8735 30.168 64.4255 30.616C63.9775 31.032 63.4015 31.24 62.6975 31.24ZM50.7935 6.136C50.1215 6.136 49.5455 5.912 49.0655 5.464C48.6175 4.984 48.3935 4.424 48.3935 3.784C48.3935 3.144 48.6175 2.584 49.0655 2.104C49.5455 1.624 50.1215 1.384 50.7935 1.384C51.4335 1.384 51.9775 1.624 52.4255 2.104C52.9055 2.584 53.1455 3.144 53.1455 3.784C53.1455 4.424 52.9055 4.984 52.4255 5.464C51.9775 5.912 51.4335 6.136 50.7935 6.136ZM62.7031 31.24L63.1831 27.304C64.2071 27.304 65.0391 27.24 65.6791 27.112C66.3191 26.952 66.8471 26.584 67.2631 26.008C67.7111 25.4 68.1271 24.456 68.5111 23.176C68.8951 21.896 69.3431 20.104 69.8551 17.8L73.4551 18.808C73.2631 19.608 73.0391 20.568 72.7831 21.688C72.5271 22.808 72.3991 23.832 72.3991 24.76C72.3991 25.272 72.5271 25.72 72.7831 26.104C73.0391 26.488 73.4711 26.792 74.0791 27.016C74.7191 27.208 75.5671 27.304 76.6231 27.304C77.5831 27.304 78.3671 27.224 78.9751 27.064C79.5831 26.904 80.0791 26.52 80.4631 25.912C80.8791 25.304 81.2471 24.328 81.5671 22.984C81.8871 21.64 82.2231 19.8 82.5751 17.464L86.2231 18.136C86.1271 18.712 86.0151 19.416 85.8871 20.248C85.7591 21.08 85.6311 21.912 85.5031 22.744C85.4071 23.544 85.3591 24.216 85.3591 24.76C85.3591 25.208 85.4551 25.64 85.6471 26.056C85.8711 26.44 86.2871 26.744 86.8951 26.968C87.5351 27.192 88.4791 27.304 89.7271 27.304C91.3271 27.304 92.4791 26.968 93.1831 26.296C93.9191 25.624 94.2871 24.6 94.2871 23.224C94.2871 22.488 94.2711 21.72 94.2391 20.92C94.2071 20.088 94.1431 19.176 94.0471 18.184C93.9831 17.16 93.8711 15.992 93.7111 14.68L97.2151 14.44C97.4071 17.032 97.6151 19.16 97.8391 20.824C98.0951 22.488 98.4471 23.8 98.8951 24.76C99.3751 25.688 100.015 26.344 100.815 26.728C101.615 27.112 102.671 27.304 103.983 27.304C104.655 27.304 105.135 27.496 105.423 27.88C105.743 28.232 105.903 28.664 105.903 29.176C105.903 29.688 105.679 30.168 105.231 30.616C104.783 31.032 104.207 31.24 103.503 31.24C102.415 31.24 101.439 31.096 100.575 30.808C99.7431 30.488 99.0071 30.072 98.3671 29.56C97.7591 29.016 97.2471 28.408 96.8311 27.736C96.4471 27.032 96.1751 26.296 96.0151 25.528L96.8791 25.816C96.5271 27.256 95.9671 28.376 95.1991 29.176C94.4631 29.944 93.5831 30.488 92.5591 30.808C91.5351 31.096 90.4471 31.24 89.2951 31.24C87.8871 31.24 86.7351 31.064 85.8391 30.712C84.9431 30.36 84.2391 29.832 83.7271 29.128C83.2471 28.392 82.9271 27.464 82.7671 26.344H84.3991C83.7911 27.72 83.1511 28.76 82.4791 29.464C81.8071 30.168 80.9751 30.648 79.9831 30.904C78.9911 31.128 77.6791 31.24 76.0471 31.24C75.2471 31.24 74.3831 31.112 73.4551 30.856C72.5591 30.6 71.7751 30.104 71.1031 29.368C70.4311 28.6 70.0311 27.464 69.9031 25.96L71.3431 25.672C70.7991 27.304 70.1271 28.52 69.3271 29.32C68.5591 30.088 67.6311 30.6 66.5431 30.856C65.4551 31.112 64.1751 31.24 62.7031 31.24ZM83.3911 4.84C82.7191 4.84 82.1431 4.616 81.6631 4.168C81.2151 3.688 80.9911 3.128 80.9911 2.488C80.9911 1.848 81.2151 1.288 81.6631 0.808C82.1431 0.327998 82.7191 0.0879974 83.3911 0.0879974C84.0311 0.0879974 84.5751 0.327998 85.0231 0.808C85.5031 1.288 85.7431 1.848 85.7431 2.488C85.7431 3.128 85.5031 3.688 85.0231 4.168C84.5751 4.616 84.0311 4.84 83.3911 4.84ZM80.1271 10.12C79.4551 10.12 78.8791 9.896 78.3991 9.448C77.9511 8.968 77.7271 8.408 77.7271 7.768C77.7271 7.128 77.9511 6.568 78.3991 6.088C78.8791 5.608 79.4551 5.368 80.1271 5.368C80.7671 5.368 81.3111 5.608 81.7591 6.088C82.2391 6.568 82.4791 7.128 82.4791 7.768C82.4791 8.408 82.2391 8.968 81.7591 9.448C81.3111 9.896 80.7671 10.12 80.1271 10.12ZM86.6551 10.12C85.9831 10.12 85.4071 9.896 84.9271 9.448C84.4791 8.968 84.2551 8.408 84.2551 7.768C84.2551 7.128 84.4791 6.568 84.9271 6.088C85.4071 5.608 85.9831 5.368 86.6551 5.368C87.2951 5.368 87.8391 5.608 88.2871 6.088C88.7671 6.568 89.0071 7.128 89.0071 7.768C89.0071 8.408 88.7671 8.968 88.2871 9.448C87.8391 9.896 87.2951 10.12 86.6551 10.12ZM103.484 31.24L103.964 27.304C105.852 27.304 107.324 27.24 108.38 27.112C109.436 26.952 110.188 26.584 110.636 26.008C111.084 25.4 111.308 24.456 111.308 23.176C111.308 22.376 111.18 21.432 110.924 20.344C110.668 19.224 110.332 18.04 109.916 16.792C109.5 15.544 109.052 14.312 108.572 13.096L112.46 11.656C112.876 12.68 113.26 13.848 113.612 15.16C113.996 16.472 114.316 17.768 114.572 19.048C114.828 20.328 114.956 21.448 114.956 22.408C114.956 24.008 114.732 25.368 114.284 26.488C113.868 27.608 113.196 28.52 112.268 29.224C111.34 29.928 110.14 30.44 108.668 30.76C107.228 31.08 105.5 31.24 103.484 31.24ZM113.948 6.664C113.276 6.664 112.7 6.44 112.22 5.992C111.772 5.512 111.548 4.952 111.548 4.312C111.548 3.672 111.772 3.112 112.22 2.632C112.7 2.152 113.276 1.912 113.948 1.912C114.588 1.912 115.132 2.152 115.58 2.632C116.06 3.112 116.3 3.672 116.3 4.312C116.3 4.952 116.06 5.512 115.58 5.992C115.132 6.44 114.588 6.664 113.948 6.664ZM107.372 6.664C106.7 6.664 106.124 6.44 105.644 5.992C105.196 5.512 104.972 4.952 104.972 4.312C104.972 3.672 105.196 3.112 105.644 2.632C106.124 2.152 106.7 1.912 107.372 1.912C108.012 1.912 108.556 2.152 109.004 2.632C109.484 3.112 109.724 3.672 109.724 4.312C109.724 4.952 109.484 5.512 109.004 5.992C108.556 6.44 108.012 6.664 107.372 6.664Z" fill="#186F65"/>
</svg>
